<svg width="32" height="33" viewBox="0 0 32 33" fill="none" xmlns="http://www.w3.org/2000/svg">
<path fill-rule="evenodd" clip-rule="evenodd" d="M18.3326 5.79904C19.6951 4.84546 21.6125 4.77729 22.9399 5.9587C24.2578 7.1316 25.3524 8.43597 26.1834 9.84005C27.3765 11.856 28 14.0342 28 16.2469C28 16.2596 27.9997 16.2723 27.9991 16.2849C27.9997 16.2975 28 16.3101 28 16.3229V25.894C28 27.2193 26.9231 28.2896 25.5997 28.2896H6.4004C5.07698 28.2896 4.00006 27.2193 4.00006 25.894V16.3229C4.00006 16.3103 4.00035 16.2978 4.00092 16.2853C3.98794 16.0155 4.11259 15.7514 4.34152 15.5912L18.3326 5.79904ZM5.60087 17.1233V21.8045L6.7005 21.7889C7.18778 21.782 7.66965 21.6865 8.12236 21.507L9.26703 21.0532C10.2694 20.6557 11.3942 20.7035 12.3591 21.1846C12.9169 21.4627 13.5674 21.4904 14.147 21.2606L14.8699 20.974C15.8723 20.5766 16.997 20.6243 17.962 21.1054C18.5197 21.3835 19.1702 21.4112 19.7498 21.1814L20.1113 21.0381C21.3445 20.5492 22.7309 20.6105 23.9164 21.2015C24.3564 21.4209 24.8445 21.5325 25.3356 21.5256L26.3992 21.5105V17.1233H5.60087ZM26.3676 15.4465H7.34001L19.2505 7.11055C20.1025 6.51429 21.1864 6.541 21.8756 7.15448C23.0827 8.22879 24.0672 9.40747 24.8057 10.6553C25.7156 12.1927 26.2388 13.812 26.3676 15.4465ZM26.3992 23.1115L25.3583 23.1262C24.6108 23.1368 23.8701 22.9672 23.2021 22.6342C22.4222 22.2453 21.51 22.2056 20.7013 22.5262L20.3398 22.6695C19.3374 23.0669 18.2127 23.0192 17.2477 22.5381C16.69 22.26 16.0395 22.2323 15.4599 22.4621L14.737 22.7487C13.7346 23.1461 12.6098 23.0984 11.6448 22.6172C11.0871 22.3392 10.4366 22.3115 9.85701 22.5413L8.71238 22.9951C8.07886 23.2463 7.40472 23.3799 6.72312 23.3896L5.60087 23.4054V25.894C5.60087 26.3307 5.95659 26.6888 6.4004 26.6888H25.5997C26.0435 26.6888 26.3992 26.3307 26.3992 25.894V23.1115Z" fill="#2F3747"/>
</svg>
