<svg width="309" height="95" viewBox="0 0 309 95" fill="none" xmlns="http://www.w3.org/2000/svg">
<path d="M3.83768 59V53.1688H21.0653C25.6704 53.1688 29.736 52.1683 33.2609 50.1674C36.7861 48.1093 39.5435 45.3077 41.5334 41.7633C43.5237 38.1614 44.5187 34.0452 44.5187 29.4143C44.5187 24.7837 43.5237 20.6956 41.5334 17.1513C39.5435 13.6066 36.7861 10.834 33.2609 8.83268C29.736 6.77456 25.6704 5.7455 21.0653 5.7455H4.0083V0H21.236C25.5002 0 29.4232 0.743219 33.0049 2.22966C36.6439 3.65894 39.7994 5.7169 42.4719 8.40413C45.2008 11.0338 47.3045 14.1495 48.783 17.7514C50.261 21.2962 51 25.2122 51 29.5C51 33.6735 50.261 37.5613 48.783 41.1628C47.3045 44.7647 45.2293 47.9091 42.5568 50.596C39.8847 53.226 36.7292 55.2841 33.0902 56.7703C29.5085 58.2569 25.6136 59 21.4062 59H3.83768ZM0 59V0H6.22574V59H0Z" fill="#2F3747"/>
<path d="M63 59V0H69V59H63Z" fill="#2F3747"/>
<path d="M110.307 60C106.173 60 102.322 59.237 98.754 57.7118C95.1864 56.1862 92.0713 54.0676 89.4098 51.3559C86.7483 48.6438 84.6813 45.48 83.2087 41.8644C81.7361 38.1919 81 34.2372 81 29.9999C81 25.7626 81.7361 21.8361 83.2087 18.2202C84.7375 14.6046 86.8329 11.4407 89.4948 8.72864C92.1563 5.96042 95.2994 3.81356 98.924 2.28812C102.549 0.762719 106.484 0 110.732 0C115.432 0 119.736 0.932194 123.644 2.79659C127.608 4.66102 130.864 7.28821 133.413 10.6781L129.08 14.9998C127.042 12.1185 124.437 9.91513 121.265 8.38991C118.094 6.80781 114.583 6.01694 110.732 6.01694C106.144 6.01694 102.095 7.06214 98.5841 9.15252C95.0731 11.1864 92.3263 14.0111 90.3442 17.6271C88.4188 21.2427 87.4561 25.3956 87.4561 30.0846C87.4561 34.7176 88.4188 38.8418 90.3442 42.4574C92.3263 46.0734 95.0165 48.9264 98.4141 51.0168C101.869 53.0506 105.777 54.0676 110.137 54.0676C114.498 54.0676 118.264 53.1919 121.435 51.4406C124.663 49.689 127.127 47.1468 128.826 43.8134C130.581 40.4801 131.487 36.4688 131.544 31.7794L135.112 34.4067H109.542V28.7286H138V29.6608C138 36.2145 136.811 41.7513 134.432 46.2712C132.11 50.7907 128.882 54.2089 124.748 56.5253C120.614 58.8418 115.8 60 110.307 60Z" fill="#2F3747"/>
<path d="M149 59V0H156V59H149Z" fill="#2F3747"/>
<path d="M186.383 59V1.62938H192.617V59H186.383ZM166 5.7455V0H213V5.7455H166Z" fill="#2F3747"/>
<path d="M211 59L234.806 0H239.449L263 59H256.331L235.82 6.86035H238.267L217.587 59H211ZM221.892 43.6499V38.0757H252.281V43.6499H221.892Z" fill="#2F3747"/>
<path d="M273 59V0H279.155V59H273ZM277.045 59V53.2546H309V59H277.045Z" fill="#2F3747"/>
<path d="M7.66045 94.2958V70.0045H12.3457V94.2958H7.66045ZM0 73.7469V69.4749H20.0064V73.7469H0Z" fill="#2F3747"/>
<path d="M26.6376 83.9154V80.1728H32.2121C33.3521 80.1728 34.2299 79.8786 34.8455 79.2903C35.4838 78.6783 35.803 77.8425 35.803 76.7833C35.803 75.8183 35.4838 75.018 34.8455 74.3825C34.2299 73.7235 33.3521 73.3938 32.2121 73.3938H26.6376V69.4749H32.6225C34.1728 69.4749 35.5295 69.7926 36.6922 70.4282C37.8777 71.0401 38.7897 71.8874 39.428 72.9702C40.0894 74.053 40.4199 75.3005 40.4199 76.7128C40.4199 78.1722 40.0894 79.4433 39.428 80.5259C38.7897 81.5851 37.8777 82.4208 36.6922 83.0328C35.5067 83.6212 34.1273 83.9154 32.5541 83.9154H26.6376ZM23.2178 94.2958V69.4749H27.8689V94.2958H23.2178ZM36.3503 94.2958L28.4161 83.5623L32.6909 82.1853L41.9931 94.2958H36.3503Z" fill="#2F3747"/>
<path d="M42.0791 94.2958L51.7574 69.4749H55.5535L65.1976 94.2958H60.2388L52.7835 73.9235H54.4934L46.9353 94.2958H42.0791ZM47.209 89.6705V85.6454H60.1362V89.6705H47.209Z" fill="#2F3747"/>
<path d="M68.0371 94.2958V69.4749H71.286L72.6884 74.2766V94.2958H68.0371ZM84.6571 94.2958L70.3968 75.2299L71.286 69.4749L85.5475 88.5407L84.6571 94.2958ZM84.6571 94.2958L83.3242 89.6352V69.4749H88.0086V94.2958H84.6571Z" fill="#2F3747"/>
<path d="M99.3938 94.6485C97.4557 94.6485 95.7919 94.3071 94.4005 93.6246C93.0328 92.9419 91.7895 91.918 90.6724 90.5529L93.7514 87.3751C94.4572 88.3403 95.2781 89.0935 96.2124 89.6348C97.1486 90.1526 98.2877 90.4116 99.6334 90.4116C100.842 90.4116 101.798 90.1645 102.506 89.6701C103.235 89.1759 103.601 88.4932 103.601 87.6223C103.601 86.8692 103.394 86.2571 102.985 85.7864C102.573 85.3156 102.027 84.9156 101.343 84.5859C100.681 84.2564 99.9405 83.9622 99.1196 83.7033C98.3224 83.4208 97.5124 83.1031 96.6915 82.75C95.8943 82.3969 95.1538 81.9614 94.47 81.4436C93.8081 80.9022 93.2724 80.2197 92.861 79.3958C92.4514 78.5485 92.2466 77.4891 92.2466 76.2182C92.2466 74.7118 92.5995 73.429 93.3071 72.3696C94.0129 71.3104 94.9819 70.4984 96.2124 69.9335C97.4448 69.3687 98.8344 69.0862 100.385 69.0862C102.027 69.0862 103.51 69.404 104.832 70.0395C106.153 70.6749 107.236 71.4988 108.081 72.511L105.002 75.6885C104.296 74.8882 103.566 74.2999 102.813 73.9232C102.083 73.5466 101.251 73.3582 100.317 73.3582C99.2457 73.3582 98.401 73.5702 97.7867 73.9938C97.1705 74.4174 96.8633 75.0296 96.8633 75.8299C96.8633 76.5124 97.0681 77.0655 97.4777 77.4891C97.8891 77.913 98.4248 78.2777 99.0867 78.5838C99.7705 78.8897 100.511 79.1839 101.308 79.4664C102.129 79.7489 102.939 80.0666 103.736 80.4197C104.557 80.7728 105.3 81.2317 105.96 81.7967C106.643 82.3617 107.19 83.0914 107.602 83.9856C108.011 84.8567 108.218 85.9395 108.218 87.234C108.218 89.5407 107.43 91.3532 105.857 92.6713C104.285 93.9894 102.129 94.6485 99.3938 94.6485Z" fill="#2F3747"/>
<path d="M111.887 94.2958V69.4749H116.539V94.2958H111.887ZM115.308 84.1273V79.8551H127.414V84.1273H115.308ZM115.308 73.7116V69.4749H127.996V73.7116H115.308Z" fill="#2F3747"/>
<path d="M135.079 83.9154V80.1728H140.653C141.793 80.1728 142.67 79.8786 143.286 79.2903C143.924 78.6783 144.244 77.8425 144.244 76.7833C144.244 75.8183 143.924 75.018 143.286 74.3825C142.67 73.7235 141.793 73.3938 140.653 73.3938H135.079V69.4749H141.063C142.614 69.4749 143.97 69.7926 145.133 70.4282C146.32 71.0401 147.23 71.8874 147.868 72.9702C148.53 74.053 148.861 75.3005 148.861 76.7128C148.861 78.1722 148.53 79.4433 147.868 80.5259C147.23 81.5851 146.32 82.4208 145.133 83.0328C143.948 83.6212 142.568 83.9154 140.995 83.9154H135.079ZM131.66 94.2958V69.4749H136.309V94.2958H131.66ZM144.791 94.2958L136.858 83.5623L141.132 82.1853L150.434 94.2958H144.791Z" fill="#2F3747"/>
<path d="M164.117 94.6838C162.362 94.6838 160.72 94.3543 159.194 93.6952C157.689 93.036 156.367 92.1299 155.226 90.9765C154.109 89.7996 153.231 88.4345 152.593 86.8809C151.955 85.3039 151.635 83.6209 151.635 81.832C151.635 80.0431 151.944 78.3836 152.558 76.8538C153.196 75.3002 154.074 73.9468 155.191 72.7934C156.332 71.6165 157.654 70.7104 159.159 70.0748C160.664 69.4157 162.294 69.0862 164.05 69.0862C165.827 69.0862 167.469 69.4157 168.974 70.0748C170.478 70.7104 171.789 71.6165 172.907 72.7934C174.047 73.9468 174.936 75.3002 175.574 76.8538C176.212 78.4072 176.532 80.0783 176.532 81.8672C176.532 83.6562 176.212 85.3273 175.574 86.8809C174.936 88.4345 174.047 89.7996 172.907 90.9765C171.789 92.1299 170.478 93.036 168.974 93.6952C167.493 94.3543 165.873 94.6838 164.117 94.6838ZM164.05 90.1998C165.6 90.1998 166.944 89.8468 168.085 89.1406C169.224 88.4345 170.115 87.4576 170.753 86.2101C171.413 84.9626 171.744 83.5031 171.744 81.832C171.744 80.608 171.563 79.49 171.197 78.4778C170.831 77.4657 170.308 76.5949 169.625 75.8652C168.941 75.1119 168.131 74.5352 167.196 74.1351C166.26 73.7349 165.213 73.5349 164.05 73.5349C162.545 73.5349 161.21 73.8879 160.047 74.5941C158.908 75.2766 158.007 76.2416 157.347 77.4891C156.709 78.7367 156.389 80.1844 156.389 81.832C156.389 83.0795 156.572 84.2211 156.935 85.2567C157.323 86.2925 157.848 87.1751 158.51 87.9048C159.193 88.6345 160.002 89.1993 160.938 89.5996C161.894 89.9996 162.933 90.1998 164.05 90.1998Z" fill="#2F3747"/>
<path d="M180.218 94.2958V69.4749H183.502L193.249 85.5748H191.368L201.08 69.4749H204.362V94.2958H199.746V77.7014L200.636 77.9839L193.864 89.2115H190.717L183.946 77.9839L184.87 77.7014V94.2958H180.218Z" fill="#2F3747"/>
<path d="M207.496 94.2958L217.174 69.4749H220.97L230.614 94.2958H225.656L218.2 73.9235H219.911L212.352 94.2958H207.496ZM212.627 89.6705V85.6454H225.553V89.6705H212.627Z" fill="#2F3747"/>
<path d="M236.533 94.2958V70.0045H241.217V94.2958H236.533ZM228.872 73.7469V69.4749H248.878V73.7469H228.872Z" fill="#2F3747"/>
<path d="M252.089 94.2958V69.4749H256.741V94.2958H252.089Z" fill="#2F3747"/>
<path d="M272.927 94.6838C271.17 94.6838 269.53 94.3543 268.001 93.6952C266.497 93.036 265.175 92.1299 264.034 90.9765C262.917 89.7996 262.039 88.4345 261.401 86.8809C260.763 85.3039 260.443 83.6209 260.443 81.832C260.443 80.0431 260.752 78.3836 261.366 76.8538C262.006 75.3002 262.884 73.9468 264.001 72.7934C265.14 71.6165 266.462 70.7104 267.967 70.0748C269.472 69.4157 271.102 69.0862 272.858 69.0862C274.637 69.0862 276.279 69.4157 277.783 70.0748C279.288 70.7104 280.599 71.6165 281.716 72.7934C282.855 73.9468 283.744 75.3002 284.382 76.8538C285.022 78.4072 285.34 80.0783 285.34 81.8672C285.34 83.6562 285.022 85.3273 284.382 86.8809C283.744 88.4345 282.855 89.7996 281.716 90.9765C280.599 92.1299 279.288 93.036 277.783 93.6952C276.301 94.3543 274.682 94.6838 272.927 94.6838ZM272.858 90.1998C274.408 90.1998 275.754 89.8468 276.893 89.1406C278.034 88.4345 278.923 87.4576 279.561 86.2101C280.223 84.9626 280.553 83.5031 280.553 81.832C280.553 80.608 280.371 79.49 280.005 78.4778C279.641 77.4657 279.116 76.5949 278.433 75.8652C277.749 75.1119 276.939 74.5352 276.004 74.1351C275.07 73.7349 274.021 73.5349 272.858 73.5349C271.353 73.5349 270.02 73.8879 268.857 74.5941C267.716 75.2766 266.817 76.2416 266.155 77.4891C265.517 78.7367 265.197 80.1844 265.197 81.832C265.197 83.0795 265.38 84.2211 265.745 85.2567C266.133 86.2925 266.656 87.1751 267.318 87.9048C268.001 88.6345 268.811 89.1993 269.746 89.5996C270.704 89.9996 271.741 90.1998 272.858 90.1998Z" fill="#2F3747"/>
<path d="M289.028 94.2958V69.4749H292.276L293.678 74.2766V94.2958H289.028ZM305.648 94.2958L291.387 75.2299L292.276 69.4749L306.537 88.5407L305.648 94.2958ZM305.648 94.2958L304.314 89.6352V69.4749H309V94.2958H305.648Z" fill="#2F3747"/>
</svg>
