<svg width="32" height="33" viewBox="0 0 32 33" fill="none" xmlns="http://www.w3.org/2000/svg">
<path fill-rule="evenodd" clip-rule="evenodd" d="M8.5 7.68384H23.5C23.8977 7.68433 24.2789 7.84253 24.5601 8.12373C24.8413 8.40492 24.9995 8.78617 25 9.18384V24.1838C24.9995 24.5815 24.8413 24.9628 24.5601 25.2439C24.2789 25.5251 23.8977 25.6833 23.5 25.6838H8.5C8.10233 25.6833 7.72109 25.5251 7.43989 25.2439C7.15869 24.9628 7.0005 24.5815 7 24.1838V9.18384C7.0005 8.78617 7.15869 8.40492 7.43989 8.12373C7.72109 7.84253 8.10233 7.68433 8.5 7.68384ZM17.5 12.1838V9.18384H14.5V12.1838H17.5ZM8.5 9.18384V24.1838H23.5009L23.5 9.18384H19V13.6838H13V9.18384H8.5ZM14.5 18.1838H10V19.6838H14.5V18.1838ZM17.5 21.1838H10V22.6838H17.5V21.1838Z" fill="#2F3747"/>
</svg>
