<svg width="32" height="33" viewBox="0 0 32 33" fill="none" xmlns="http://www.w3.org/2000/svg">
<path fill-rule="evenodd" clip-rule="evenodd" d="M15.25 6.1875H16.75V9.9375H15.25V6.1875ZM9.10574 8.73266L8.04519 9.79321L10.6746 12.4226L11.7351 11.362L9.10574 8.73266ZM16 13.6875C16.5933 13.6875 17.1734 13.8634 17.6667 14.1931C18.1601 14.5227 18.5446 14.9913 18.7716 15.5394C18.9987 16.0876 19.0581 16.6908 18.9424 17.2728C18.8266 17.8547 18.5409 18.3893 18.1213 18.8088C17.7018 19.2284 17.1672 19.5141 16.5853 19.6299C16.0033 19.7456 15.4001 19.6862 14.852 19.4591C14.3038 19.2321 13.8352 18.8476 13.5056 18.3542C13.1759 17.8609 13 17.2808 13 16.6875C13.0009 15.8921 13.3173 15.1296 13.8797 14.5672C14.4421 14.0048 15.2046 13.6884 16 13.6875ZM16 12.1875C15.11 12.1875 14.24 12.4514 13.4999 12.9459C12.7599 13.4404 12.1831 14.1432 11.8425 14.9654C11.5019 15.7877 11.4128 16.6925 11.5865 17.5654C11.7601 18.4383 12.1887 19.2401 12.818 19.8695C13.4474 20.4988 14.2492 20.9274 15.1221 21.101C15.995 21.2747 16.8998 21.1856 17.7221 20.845C18.5443 20.5044 19.2471 19.9276 19.7416 19.1876C20.2361 18.4475 20.5 17.5775 20.5 16.6875C20.5 15.494 20.0259 14.3494 19.182 13.5055C18.3381 12.6616 17.1935 12.1875 16 12.1875ZM5.5 15.9375H9.25V17.4375H5.5V15.9375ZM10.6745 20.9524L8.04517 23.5818L9.10572 24.6423L11.7351 22.013L10.6745 20.9524ZM15.25 23.4375H16.75V27.1875H15.25V23.4375ZM21.3255 20.9524L20.2649 22.0129L22.8943 24.6423L23.9548 23.5818L21.3255 20.9524ZM22.75 15.9375H26.5V17.4375H22.75V15.9375ZM22.8943 8.73268L20.2649 11.3621L21.3255 12.4226L23.9548 9.79324L22.8943 8.73268Z" fill="#2D3748"/>
</svg>
