<svg width="32" height="33" viewBox="0 0 32 33" fill="none" xmlns="http://www.w3.org/2000/svg">
<path fill-rule="evenodd" clip-rule="evenodd" d="M19 6.18384V7.68384C19.9946 7.68384 20.9484 8.07893 21.6516 8.78219C22.3549 9.48545 22.75 10.4393 22.75 11.4338C22.75 12.4284 22.3549 13.3822 21.6516 14.0855C20.9484 14.7887 19.9946 15.1838 19 15.1838V16.6838C20.3924 16.6838 21.7277 16.1307 22.7123 15.1461C23.6969 14.1616 24.25 12.8262 24.25 11.4338C24.25 10.0415 23.6969 8.70609 22.7123 7.72153C21.7277 6.73696 20.3924 6.18384 19 6.18384ZM19 27.1838H20.5V23.4338C20.4984 22.042 19.9447 20.7075 18.9605 19.7233C17.9763 18.7391 16.6419 18.1855 15.25 18.1838H10.75C9.35811 18.1855 8.0237 18.7391 7.03949 19.7233C6.05527 20.7075 5.50163 22.042 5.5 23.4338V27.1838H7V23.4338C7.00117 22.4396 7.39664 21.4865 8.09964 20.7835C8.80265 20.0805 9.7558 19.685 10.75 19.6838H15.25C16.2442 19.685 17.1973 20.0805 17.9004 20.7835C18.6034 21.4865 18.9988 22.4396 19 23.4338V27.1838ZM25 27.1838H26.5V23.4338C26.4985 22.0419 25.9448 20.7075 24.9606 19.7232C23.9764 18.739 22.6419 18.1854 21.25 18.1838V19.6838C22.2442 19.685 23.1974 20.0804 23.9004 20.7834C24.6034 21.4865 24.9989 22.4396 25 23.4338V27.1838ZM15.0834 8.31583C14.4667 7.90377 13.7417 7.68384 13 7.68384C12.0054 7.68384 11.0516 8.07893 10.3484 8.78219C9.64509 9.48545 9.25 10.4393 9.25 11.4338C9.25 12.1755 9.46994 12.9005 9.88199 13.5172C10.294 14.1339 10.8797 14.6146 11.5649 14.8984C12.2502 15.1822 13.0042 15.2565 13.7316 15.1118C14.459 14.9671 15.1272 14.6099 15.6517 14.0855C16.1761 13.561 16.5333 12.8929 16.6779 12.1654C16.8226 11.438 16.7484 10.684 16.4646 9.99878C16.1807 9.31355 15.7001 8.72788 15.0834 8.31583ZM10.0833 7.06862C10.9466 6.49175 11.9617 6.18384 13 6.18384C14.3924 6.18384 15.7277 6.73696 16.7123 7.72153C17.6969 8.70609 18.25 10.0415 18.25 11.4338C18.25 12.4722 17.9421 13.4872 17.3652 14.3506C16.7883 15.2139 15.9684 15.8868 15.0091 16.2842C14.0498 16.6816 12.9942 16.7855 11.9758 16.583C10.9574 16.3804 10.0219 15.8804 9.28769 15.1461C8.55347 14.4119 8.05345 13.4765 7.85088 12.4581C7.64831 11.4397 7.75227 10.3841 8.14963 9.42475C8.54699 8.46544 9.2199 7.6455 10.0833 7.06862Z" fill="#2F3747"/>
</svg>
