<svg width="219" height="190" viewBox="0 0 219 190" fill="none" xmlns="http://www.w3.org/2000/svg">
<path d="M76.6404 56.9694C77.3452 54.9717 78.593 53.2101 80.2436 51.8825C81.8942 50.5548 83.8823 49.7136 85.9845 49.4535L86.4095 52.8868C84.9456 53.068 83.5613 53.6537 82.4119 54.5782C81.2625 55.5027 80.3937 56.7294 79.9029 58.1204L76.6404 56.9694Z" fill="black"/>
<path d="M126.823 39.9825C127.233 42.0608 127.055 44.2122 126.31 46.195C125.564 48.1778 124.281 49.9135 122.604 51.2072L120.491 48.4677C121.659 47.5669 122.553 46.3582 123.072 44.9776C123.591 43.5969 123.714 42.0988 123.429 40.6516L126.823 39.9825Z" fill="black" fill-opacity="0.4"/>
<path d="M108.051 25.3113C105.939 25.1476 103.914 24.3983 102.205 23.1475C100.495 21.8968 99.1681 20.1941 98.3727 18.2308L101.579 16.9318C102.133 18.2989 103.057 19.4845 104.247 20.3554C105.438 21.2263 106.848 21.7481 108.318 21.8621L108.051 25.3113Z" fill="black" fill-opacity="0.4"/>
<path d="M16.9117 141.766C14.7998 141.603 12.7753 140.853 11.0656 139.603C9.35599 138.352 8.02893 136.649 7.23349 134.686L10.4399 133.387C10.9938 134.754 11.9179 135.94 13.1083 136.81C14.2988 137.681 15.7085 138.203 17.1791 138.317L16.9117 141.766Z" fill="black" fill-opacity="0.4"/>
<path d="M21.6238 170.034C21.7875 167.922 22.5368 165.898 23.7875 164.188C25.0383 162.478 26.7409 161.151 28.7042 160.356L30.0033 163.562C28.6362 164.116 27.4506 165.04 26.5797 166.231C25.7087 167.421 25.187 168.831 25.073 170.301L21.6238 170.034Z" fill="#FFBA00"/>
<path d="M141.624 98.0341C141.787 95.9221 142.537 93.8976 143.788 92.1879C145.038 90.4783 146.741 89.1512 148.704 88.3558L150.003 91.5622C148.636 92.1161 147.451 93.0402 146.58 94.2306C145.709 95.4211 145.187 96.8308 145.073 98.3014L141.624 98.0341Z" fill="black" fill-opacity="0.4"/>
<path d="M178.788 136.353C179.466 138.36 179.57 140.516 179.089 142.579C178.608 144.642 177.562 146.53 176.067 148.031L173.615 145.591C174.656 144.545 175.385 143.23 175.72 141.794C176.054 140.357 175.982 138.856 175.51 137.458L178.788 136.353Z" fill="#FFBA00" fill-opacity="0.4"/>
<path d="M76.3404 131.795C76.1766 133.907 75.4273 135.932 74.1766 137.641C72.9258 139.351 71.2232 140.678 69.2599 141.473L67.9608 138.267C69.3279 137.713 70.5135 136.789 71.3844 135.598C72.2554 134.408 72.7771 132.998 72.8911 131.528L76.3404 131.795Z" fill="#FFBA00"/>
<path d="M192.652 170.761C190.569 171.15 188.42 170.95 186.445 170.184C184.47 169.419 182.747 168.118 181.471 166.427L184.232 164.342C185.12 165.52 186.32 166.426 187.695 166.959C189.07 167.492 190.567 167.631 192.017 167.36L192.652 170.761Z" fill="black"/>
<path d="M53.0353 105.799C50.9529 106.188 48.8035 105.988 46.8284 105.223C44.8533 104.457 43.1307 103.156 41.8543 101.465L44.6152 99.3805C45.504 100.558 46.7035 101.464 48.0788 101.997C49.4541 102.53 50.9508 102.669 52.4009 102.399L53.0353 105.799Z" fill="black"/>
<path d="M190.25 81.0489C190.077 83.1602 189.319 85.1814 188.061 86.8856C186.802 88.5898 185.094 89.9094 183.127 90.6963L181.842 87.4842C183.212 86.9363 184.401 86.0174 185.277 84.8307C186.153 83.6441 186.681 82.2366 186.802 80.7665L190.25 81.0489Z" fill="#FFBA00"/>
<path d="M145.684 153.268C143.983 154.53 141.963 155.293 139.853 155.471C137.742 155.649 135.623 155.235 133.735 154.275L135.302 151.191C136.617 151.859 138.092 152.147 139.562 152.024C141.032 151.9 142.438 151.368 143.623 150.489L145.684 153.268Z" fill="#FFBA00"/>
<circle cx="38.0168" cy="63.2914" r="2.53165" fill="#FFBA00" fill-opacity="0.5"/>
<circle cx="174.725" cy="65.8227" r="2.53165" fill="#FFBA00" fill-opacity="0.5"/>
<circle cx="200.532" cy="147.532" r="2.53165" fill="#FFBA00" fill-opacity="0.5"/>
<path d="M62.8783 17.4153C63.4377 17.0326 63.9383 16.7087 64.4388 16.3554C65.4399 15.6487 66.4116 14.8832 67.4127 14.206C68.0015 13.8232 68.6199 13.4699 69.2676 13.1754C69.5621 13.0576 69.9448 13.0576 70.2393 13.146C70.7987 13.3226 70.887 13.941 70.4454 14.2943C69.0615 15.4426 67.6777 16.5909 66.2349 17.6509C65.6755 18.0926 64.9688 18.3575 64.321 18.6814C63.9677 18.8581 63.7027 18.7109 63.4966 18.4459C63.2905 18.1514 63.1138 17.8276 62.8783 17.4153Z" fill="black"/>
<path d="M60.405 25.3662C60.6111 25.6312 60.8467 25.8668 61.0234 26.1318C62.2011 28.1045 63.3789 30.0772 64.3211 32.1678C64.5861 32.7861 64.4683 33.4044 64.3505 33.9933C64.3211 34.1405 64.0855 34.3172 63.9089 34.3761C63.85 34.4055 63.6439 34.2583 63.5555 34.1405C62.6133 32.58 61.6711 31.0194 60.7584 29.4295C60.3756 28.7523 60.2873 28.0162 60.3167 27.2212C60.3461 26.6323 60.2873 26.014 60.2578 25.4251C60.3461 25.4251 60.3756 25.3957 60.405 25.3662Z" fill="black"/>
<path d="M52.8675 25.0713C52.9558 25.1891 52.9853 25.1891 52.9853 25.2185C52.3964 27.1029 51.572 28.7812 49.5403 29.5468C48.9515 29.7823 48.392 30.0179 47.8031 30.2829C47.4793 30.4301 47.2143 30.4301 46.9493 30.1651C46.6843 29.9001 46.537 29.5762 46.7137 29.2523C46.9493 28.8401 47.1848 28.4573 47.5087 28.104C48.4215 27.1618 49.6287 26.7202 50.7475 26.0724C51.1892 25.8074 51.6603 25.6013 52.1314 25.3657C52.3669 25.248 52.6319 25.1596 52.8675 25.0713Z" fill="black"/>
<path d="M66.618 22.7164C66.9713 22.8047 67.6485 22.9814 68.2963 23.1875C68.5613 23.2758 68.8852 23.3936 69.0029 23.5997C69.2679 24.0708 69.474 24.5714 69.5918 25.1014C69.6801 25.4547 69.2679 25.7491 68.8263 25.6902C67.148 25.4547 65.5286 24.9541 63.9975 24.218C63.5558 23.9825 63.2319 23.1286 63.3497 22.6281C63.438 22.2453 63.7619 22.157 64.0858 22.2159C64.8513 22.3336 65.5874 22.5103 66.618 22.7164Z" fill="black"/>
<path d="M60.4935 16.1492C60.0224 15.6487 59.8457 15.2659 59.9046 14.7065C59.9929 13.9998 59.9046 13.2932 59.9635 12.6159C60.0813 11.6737 60.2285 10.7021 60.4346 9.78933C60.5524 9.25934 61.0529 9.02379 61.5829 9.05323C62.0835 9.08267 62.6134 9.37711 62.7312 9.84822C62.8196 10.2604 62.9079 10.761 62.7901 11.1437C62.2896 12.4687 61.7007 13.7348 61.1413 15.0303C60.994 15.3542 60.7585 15.6781 60.4935 16.1492Z" fill="black"/>
<path d="M56.6954 26.5146C56.6659 28.2224 56.5482 29.8713 55.7826 31.4023C55.341 32.3151 55.1054 33.3751 54.7815 34.3467C54.7226 34.5234 54.6932 34.7001 54.6343 34.8767C54.546 35.1417 54.3399 35.4067 54.0749 35.3184C53.8688 35.2595 53.6038 34.9945 53.5743 34.8178C53.5449 34.1701 53.5154 33.4929 53.6627 32.8745C54.016 31.579 54.5165 30.3424 55.1643 29.194C55.5176 28.5757 55.7532 27.928 56.0771 27.2802C56.2537 27.0152 56.4893 26.7796 56.6954 26.5146Z" fill="black"/>
<path d="M55.7826 14.9128C55.0759 15.2956 55.017 15.2956 54.6343 14.854C53.3682 13.4701 52.1904 12.0273 51.2777 10.3785C50.9538 9.7896 50.9832 9.40682 51.3954 9.0535C51.7782 8.75906 52.3376 8.7885 52.7204 9.23016C53.0148 9.58349 53.2504 9.9957 53.4859 10.4079C54.2515 11.8801 55.017 13.3818 55.7826 14.9128Z" fill="black"/>
<path d="M52.9853 17.3864C52.9558 18.4169 52.1609 18.7114 51.2775 18.3875C50.1292 17.9458 48.9515 17.4453 47.8032 16.9742C47.4498 16.827 47.0671 16.6503 46.8021 16.3853C46.3604 15.9437 46.4487 15.6492 47.0082 15.3842C47.4793 15.1487 47.9209 15.1192 48.4215 15.3253C49.8348 15.9437 51.307 16.4148 52.632 17.2097C52.7497 17.2392 52.8675 17.3275 52.9853 17.3864Z" fill="black"/>
<path d="M52.308 21.3022C51.6308 22.0971 50.9242 22.686 49.982 22.7744C48.7159 22.8921 47.4204 22.9216 46.1543 22.951C45.742 22.9805 45.4476 22.5094 45.7126 22.1266C46.007 21.6849 46.3604 21.2138 46.9492 21.1255C48.5392 20.9194 50.1292 20.7427 51.6897 21.1255C51.8369 21.1549 51.9842 21.2138 52.308 21.3022Z" fill="black"/>
<path d="M164.144 33.8714C164.704 33.4886 165.204 33.1647 165.705 32.8114C166.706 32.1048 167.677 31.3392 168.679 30.662C169.267 30.2792 169.886 29.9259 170.533 29.6315C170.828 29.5137 171.211 29.5137 171.505 29.602C172.065 29.7787 172.153 30.397 171.711 30.7503C170.327 31.8987 168.944 33.047 167.501 34.1069C166.941 34.5486 166.235 34.8136 165.587 35.1375C165.234 35.3142 164.969 35.1669 164.762 34.9019C164.556 34.6075 164.38 34.2836 164.144 33.8714Z" fill="black"/>
<path d="M161.671 41.8213C161.877 42.0863 162.113 42.3218 162.289 42.5868C163.467 44.5596 164.645 46.5323 165.587 48.6228C165.852 49.2412 165.734 49.8595 165.616 50.4484C165.587 50.5956 165.351 50.7722 165.175 50.8311C165.116 50.8606 164.91 50.7134 164.821 50.5956C163.879 49.0351 162.937 47.4745 162.024 45.8846C161.641 45.2073 161.553 44.4712 161.583 43.6763C161.612 43.0874 161.553 42.4691 161.524 41.8802C161.612 41.8802 161.641 41.8507 161.671 41.8213Z" fill="black"/>
<path d="M154.133 41.5273C154.222 41.6451 154.251 41.6451 154.251 41.6746C153.662 43.559 152.838 45.2373 150.806 46.0028C150.217 46.2384 149.658 46.4739 149.069 46.7389C148.745 46.8861 148.48 46.8861 148.215 46.6211C147.95 46.3562 147.803 46.0323 147.98 45.7084C148.215 45.2962 148.451 44.9134 148.775 44.5601C149.687 43.6179 150.895 43.1762 152.013 42.5284C152.455 42.2634 152.926 42.0573 153.397 41.8218C153.633 41.704 153.898 41.6157 154.133 41.5273Z" fill="black"/>
<path d="M167.884 39.1715C168.237 39.2598 168.914 39.4365 169.562 39.6426C169.827 39.7309 170.151 39.8487 170.269 40.0548C170.534 40.5259 170.74 41.0264 170.858 41.5564C170.946 41.9098 170.534 42.2042 170.092 42.1453C168.414 41.9098 166.794 41.4092 165.263 40.6731C164.822 40.4376 164.498 39.5837 164.616 39.0831C164.704 38.7004 165.028 38.612 165.352 38.6709C166.117 38.7887 166.853 38.9654 167.884 39.1715Z" fill="black"/>
<path d="M161.759 32.6053C161.288 32.1047 161.112 31.722 161.17 31.1625C161.259 30.4559 161.17 29.7492 161.229 29.072C161.347 28.1298 161.494 27.1581 161.7 26.2454C161.818 25.7154 162.319 25.4798 162.849 25.5093C163.349 25.5387 163.879 25.8332 163.997 26.3043C164.085 26.7165 164.174 27.217 164.056 27.5998C163.555 28.9248 162.967 30.1909 162.407 31.4864C162.26 31.8103 162.024 32.1342 161.759 32.6053Z" fill="black"/>
<path d="M157.961 42.9697C157.932 44.6775 157.814 46.3263 157.048 47.8574C156.607 48.7702 156.371 49.8302 156.047 50.8018C155.988 50.9785 155.959 51.1551 155.9 51.3318C155.812 51.5968 155.606 51.8618 155.341 51.7735C155.134 51.7146 154.869 51.4496 154.84 51.2729C154.811 50.6251 154.781 49.9479 154.928 49.3296C155.282 48.0341 155.782 46.7974 156.43 45.6491C156.783 45.0308 157.019 44.383 157.343 43.7353C157.519 43.4703 157.755 43.2347 157.961 42.9697Z" fill="black"/>
<path d="M157.048 31.3689C156.342 31.7517 156.283 31.7517 155.9 31.31C154.634 29.9261 153.456 28.4834 152.543 26.8345C152.219 26.2457 152.249 25.8629 152.661 25.5096C153.044 25.2151 153.603 25.2446 153.986 25.6862C154.28 26.0395 154.516 26.4518 154.752 26.864C155.517 28.3362 156.283 29.8378 157.048 31.3689Z" fill="black"/>
<path d="M154.251 33.8425C154.222 34.873 153.427 35.1674 152.543 34.8436C151.395 34.4019 150.217 33.9013 149.069 33.4302C148.716 33.283 148.333 33.1064 148.068 32.8414C147.626 32.3997 147.715 32.1053 148.274 31.8403C148.745 31.6047 149.187 31.5753 149.687 31.7814C151.101 32.3997 152.573 32.8708 153.898 33.6658C154.016 33.6952 154.133 33.7836 154.251 33.8425Z" fill="black"/>
<path d="M153.574 37.7582C152.897 38.5532 152.19 39.1421 151.248 39.2304C149.982 39.3482 148.686 39.3776 147.42 39.4071C147.008 39.4365 146.713 38.9654 146.978 38.5826C147.273 38.141 147.626 37.6699 148.215 37.5816C149.805 37.3754 151.395 37.1988 152.956 37.5816C153.103 37.611 153.25 37.6699 153.574 37.7582Z" fill="black"/>
<path d="M56.5665 175.033L54.375 175.691C53.7173 175.888 53.1415 176.294 52.734 176.846L51.3757 178.688C51.1817 178.951 50.7707 178.88 50.6766 178.567L50.0183 176.375C49.8208 175.717 49.4153 175.142 48.8627 174.734L47.0212 173.376C46.7581 173.182 46.8295 172.771 47.1426 172.677L49.3341 172.018C49.9917 171.821 50.5675 171.415 50.9751 170.863L52.3333 169.021C52.5273 168.758 52.9384 168.83 53.0325 169.143L53.6907 171.334C53.8882 171.992 54.2938 172.568 54.8463 172.975L56.6878 174.333C56.9509 174.527 56.8796 174.938 56.5665 175.033Z" fill="#FFBA00"/>
<path d="M170.168 182.198L168.444 183.702C167.926 184.154 167.569 184.761 167.426 185.432L166.949 187.67C166.881 187.99 166.477 188.095 166.262 187.848L164.758 186.124C164.307 185.607 163.7 185.25 163.028 185.106L160.79 184.63C160.47 184.561 160.366 184.158 160.612 183.943L162.336 182.438C162.854 181.987 163.211 181.38 163.354 180.708L163.831 178.47C163.899 178.151 164.303 178.046 164.518 178.292L166.022 180.017C166.473 180.534 167.08 180.891 167.752 181.034L169.99 181.511C170.31 181.579 170.414 181.983 170.168 182.198Z" fill="#FFBA00"/>
<path d="M37.5771 45.4809L35.2952 45.6512C34.6105 45.7023 33.9608 45.9741 33.4437 46.4258L31.7204 47.9312C31.4742 48.1462 31.0882 47.9879 31.0638 47.6619L30.8935 45.3801C30.8425 44.6953 30.5706 44.0456 30.1189 43.5285L28.6135 41.8052C28.3985 41.559 28.5568 41.173 28.8828 41.1486L31.1647 40.9783C31.8494 40.9272 32.4991 40.6554 33.0162 40.2037L34.7395 38.6983C34.9857 38.4832 35.3717 38.6415 35.3961 38.9676L35.5664 41.2494C35.6175 41.9342 35.8893 42.5839 36.341 43.101L37.8464 44.8243C38.0615 45.0705 37.9032 45.4565 37.5771 45.4809Z" fill="#FFBA00"/>
<path d="M2.10897 87.1246C2.09196 87.3456 2.09331 87.5571 2.10917 87.7817C2.1295 88.0655 2.13083 88.07 2.17961 88.0784C2.26296 88.0927 2.29096 88.0514 2.37976 87.7779C2.5983 87.1144 2.86824 86.6145 3.39048 85.9006C4.07313 84.9715 5.24638 83.7688 6.18848 83.0348C6.71261 82.6268 7.37347 82.2757 7.82122 82.1663C8.80531 81.9313 9.77228 82.0157 10.7343 82.4215C11.8445 82.8904 12.6536 83.8454 13.0026 85.0918C13.1095 85.4805 13.1592 85.8009 13.1604 86.1108C13.1594 86.3115 13.114 86.8561 13.095 86.8696C13.0899 86.875 12.9593 86.8798 12.8044 86.8804C11.605 86.8943 10.3246 87.1851 9.32439 87.6726C8.55218 88.0506 7.89637 88.5554 7.34598 89.2017C7.24841 89.3188 6.80362 89.9351 6.70043 90.0974C6.47869 90.4506 6.27072 90.8942 6.13615 91.3C6.03981 91.5932 5.9338 92.1986 5.9335 92.4685C5.93365 92.5773 5.93198 92.7089 5.92936 92.7607C5.92879 92.813 5.93434 92.9269 5.94237 93.0141C5.95043 93.1013 5.96548 93.2817 5.97605 93.4154C5.98658 93.549 6.02288 93.752 6.05523 93.8684C6.18852 94.3475 6.42479 94.6412 6.86713 94.8804C7.24215 95.085 7.83536 95.1157 8.46847 94.9628C8.72577 94.9023 9.50625 94.6345 9.75125 94.5238C10.874 94.0176 12.0881 92.9307 12.8294 91.7689C13.3334 90.9786 13.8531 89.7432 14.1703 88.5902L14.238 88.3423L14.4452 88.3904C15.5754 88.6577 16.4195 89.263 17.0159 90.2379C17.428 90.9093 17.7451 91.9389 17.7607 92.6405C17.7668 92.9219 17.7046 93.516 17.6395 93.7978C17.563 94.1216 17.4636 94.4812 17.4424 94.5069C17.4295 94.5214 17.338 94.5057 17.0745 94.4437C15.7323 94.1192 14.3856 94.2604 13.1176 94.8568C12.0614 95.3535 11.2454 96.0233 10.5797 96.9386C10.1022 97.5995 9.92306 97.9726 9.83066 98.4988C9.79158 98.7264 9.77092 99.2125 9.79164 99.4086C9.79946 99.4727 9.81396 99.6322 9.82484 99.7638C9.87015 100.353 10.0634 100.702 10.5072 100.994C10.9151 101.263 11.4275 101.338 12.1278 101.233C12.6605 101.152 13.5989 100.83 14.153 100.54C15.0345 100.074 16.1618 99.1147 16.9279 98.1748C17.3628 97.6405 17.8324 96.9406 18.1516 96.3487C18.2495 96.1688 18.2973 96.0975 18.3217 96.1017C18.3725 96.1104 18.8566 96.4718 19.0136 96.6181C19.8108 97.3618 20.2716 98.3595 20.2477 99.3034C20.2305 100.05 19.9599 101.089 19.6264 101.691C19.505 101.911 19.2508 102.233 19.1737 102.268C19.1353 102.285 19.1162 102.311 19.1082 102.358C19.0816 102.512 19.1185 102.529 19.3115 102.453C19.5401 102.365 19.6635 102.292 19.8267 102.146C20.2036 101.815 20.4998 101.284 20.7758 100.457C20.9055 100.067 21.0473 99.2774 21.0531 98.9143C21.0642 98.0331 20.8709 97.3303 20.43 96.6561C20.0874 96.1286 19.5521 95.6265 18.9007 95.2155C18.806 95.1574 18.7341 95.1011 18.7375 95.0933C18.9766 94.4563 19.1654 93.5638 19.1843 92.9539C19.2296 91.6538 18.8393 90.2706 18.1556 89.3036C17.8344 88.8467 17.5006 88.5236 16.938 88.1194C16.2339 87.6135 15.4913 87.2705 14.6795 87.0746L14.4868 87.0269L14.5074 86.6998C14.5969 85.288 14.2264 84.0086 13.4175 82.9428C13.1173 82.546 12.8179 82.2664 12.2624 81.8698C11.3498 81.213 10.4121 80.8239 9.39459 80.6806C8.80804 80.5988 8.31606 80.6001 7.80127 80.6855C6.45069 80.9098 5.22319 81.6241 4.26569 82.7404C3.434 83.7088 2.73604 84.8612 2.40663 85.805C2.25913 86.2254 2.13367 86.7856 2.10897 87.1246ZM7.8849 91.5479C7.98456 91.272 8.14117 90.9327 8.3053 90.647C8.4513 90.3937 8.78817 89.9431 8.9981 89.7196C9.44593 89.2441 10.3155 88.7132 10.9801 88.5113C11.3709 88.3922 11.9644 88.2869 12.439 88.2532C12.8545 88.222 12.8114 88.2167 12.7842 88.3021C12.5452 89.0604 12.3968 89.4618 12.1692 89.971C11.7201 90.9779 11.3346 91.5416 10.6615 92.1836C9.83101 92.9743 8.80446 93.5054 7.97474 93.5722L7.83026 93.5851L7.78568 93.4791C7.68712 93.2487 7.64469 92.9715 7.65609 92.6491C7.66441 92.4057 7.78451 91.8278 7.8849 91.5479ZM11.6398 98.4556C11.8483 97.8992 12.298 97.2545 12.799 96.7859C13.2524 96.3636 14.1648 95.815 14.6823 95.6528C15.1159 95.5158 15.7269 95.4429 16.21 95.4693C16.473 95.4851 16.8474 95.5348 16.9402 95.5674L17.0211 95.596L16.8818 95.8713C16.6045 96.4138 16.2571 96.9505 15.9108 97.3703C15.0793 98.3743 13.9709 99.2241 12.9877 99.612C12.577 99.7737 12.1924 99.8688 11.8664 99.8903C11.5849 99.909 11.5907 99.912 11.5307 99.7009C11.5017 99.6017 11.4749 99.4527 11.4719 99.3727C11.4652 99.1435 11.5439 98.7091 11.6398 98.4556Z" fill="black"/>
<path d="M214.983 97.7384C215.02 97.9569 215.038 98.1677 215.043 98.3928C215.049 98.6773 215.048 98.6819 215 98.6947C214.919 98.7166 214.887 98.6781 214.773 98.4138C214.495 97.7731 214.18 97.3002 213.595 96.6371C212.83 95.7745 211.551 94.6844 210.546 94.0399C209.987 93.6816 209.296 93.3925 208.84 93.3247C207.839 93.1809 206.884 93.3536 205.963 93.8458C204.9 94.4145 204.182 95.4397 203.949 96.7128C203.878 97.1097 203.858 97.4333 203.885 97.742C203.905 97.9418 204 98.48 204.02 98.4917C204.026 98.4966 204.156 98.4894 204.31 98.4758C205.506 98.3796 206.808 98.5518 207.848 98.9456C208.652 99.2512 209.351 99.6937 209.959 100.287C210.066 100.395 210.566 100.968 210.684 101.12C210.937 101.451 211.184 101.874 211.356 102.265C211.478 102.549 211.64 103.142 211.665 103.41C211.674 103.519 211.688 103.65 211.695 103.701C211.701 103.753 211.706 103.867 211.706 103.955C211.706 104.042 211.707 104.223 211.709 104.357C211.711 104.491 211.693 104.697 211.672 104.816C211.583 105.305 211.375 105.619 210.956 105.898C210.601 106.136 210.013 106.221 209.369 106.127C209.107 106.09 208.305 105.895 208.051 105.807C206.887 105.406 205.578 104.435 204.734 103.346C204.159 102.605 203.528 101.423 203.107 100.304L203.017 100.063L202.815 100.13C201.714 100.5 200.929 101.18 200.424 102.205C200.076 102.912 199.854 103.966 199.903 104.666C199.923 104.947 200.039 105.533 200.13 105.807C200.236 106.123 200.368 106.472 200.391 106.495C200.405 106.509 200.495 106.485 200.752 106.399C202.058 105.952 203.412 105.97 204.73 106.447C205.827 106.845 206.701 107.437 207.448 108.288C207.984 108.902 208.196 109.257 208.337 109.773C208.396 109.996 208.462 110.478 208.459 110.675C208.457 110.74 208.457 110.9 208.458 111.032C208.467 111.623 208.307 111.988 207.892 112.32C207.51 112.625 207.007 112.747 206.3 112.705C205.762 112.675 204.798 112.44 204.22 112.202C203.299 111.818 202.089 110.966 201.24 110.101C200.758 109.608 200.226 108.954 199.854 108.394C199.74 108.224 199.686 108.158 199.662 108.164C199.612 108.177 199.163 108.582 199.02 108.742C198.294 109.555 197.927 110.591 198.037 111.529C198.123 112.27 198.487 113.281 198.875 113.849C199.016 114.057 199.299 114.355 199.379 114.383C199.418 114.396 199.44 114.42 199.452 114.466C199.493 114.617 199.457 114.637 199.258 114.579C199.022 114.512 198.893 114.451 198.717 114.321C198.311 114.026 197.968 113.525 197.617 112.726C197.452 112.35 197.239 111.576 197.199 111.215C197.108 110.339 197.236 109.621 197.613 108.909C197.906 108.353 198.393 107.804 199.004 107.335C199.093 107.268 199.159 107.205 199.155 107.198C198.859 106.586 198.589 105.714 198.514 105.109C198.35 103.818 198.612 102.405 199.204 101.379C199.482 100.895 199.785 100.543 200.308 100.088C200.963 99.5202 201.671 99.1105 202.461 98.8411L202.648 98.7759L202.598 98.452C202.379 97.0544 202.631 95.7464 203.339 94.6109C203.601 94.1882 203.874 93.8825 204.391 93.4365C205.239 92.6989 206.137 92.2255 207.137 91.9895C207.714 91.8542 208.204 91.8105 208.725 91.8483C210.09 91.9478 211.378 92.5466 212.434 93.5704C213.351 94.4585 214.151 95.5421 214.566 96.4517C214.751 96.8568 214.927 97.4031 214.983 97.7384ZM209.637 102.673C209.512 102.407 209.325 102.084 209.136 101.814C208.967 101.575 208.59 101.157 208.361 100.954C207.871 100.522 206.957 100.073 206.277 99.9325C205.876 99.8498 205.276 99.7993 204.8 99.8093C204.383 99.8163 204.426 99.8071 204.461 99.8896C204.768 100.623 204.953 101.009 205.226 101.495C205.766 102.457 206.201 102.983 206.93 103.56C207.83 104.271 208.901 104.706 209.733 104.697L209.878 104.696L209.913 104.587C209.99 104.348 210.007 104.068 209.966 103.748C209.935 103.507 209.763 102.942 209.637 102.673ZM206.531 109.895C206.273 109.361 205.766 108.76 205.224 108.339C204.734 107.96 203.775 107.497 203.245 107.383C202.8 107.287 202.185 107.27 201.706 107.341C201.446 107.381 201.078 107.464 200.988 107.505L200.91 107.541L201.074 107.803C201.4 108.317 201.795 108.82 202.179 109.206C203.099 110.13 204.28 110.874 205.295 111.171C205.719 111.294 206.11 111.353 206.437 111.345C206.719 111.338 206.714 111.341 206.754 111.125C206.774 111.024 206.787 110.873 206.782 110.793C206.768 110.564 206.65 110.139 206.531 109.895Z" fill="black"/>
</svg>
